<svg width="63.233887" height="57.769287" viewBox="0 0 63.2339 57.7693" fill="none" xmlns="http://www.w3.org/2000/svg" xmlns:xlink="http://www.w3.org/1999/xlink">
	<desc>
			Created with Pixso.
	</desc>
	<defs/>
	<ellipse id="Oval 5" rx="8.562184" ry="8.383399" transform="matrix(0.999567 -0.0294162 0.0294162 0.999567 12.6138 15.9277)" fill="#FFFFFF" fill-opacity="1.000000"/>
	<ellipse id="Oval 6" rx="10.897327" ry="10.669782" transform="matrix(0.999567 -0.0294162 0.0294162 0.999567 42.0654 11.249)" fill="#FFFFFF" fill-opacity="1.000000"/>
	<path id="Oval 7" d="M2.43 40.62C6.44 31.35 22.81 18.67 29.9 21.51C35.92 21.34 26.97 41.04 26.23 42.21C25.48 43.37 17.78 53.13 11.76 53.31C5.74 53.48 -1.58 49.89 2.43 40.62Z" fill="#FFFFFF" fill-opacity="1.000000" fill-rule="evenodd"/>
	<path id="Oval 8" d="M44.96 54.92C38.29 54.4 22.7 30.26 26.78 22.93C26.92 21.13 28.22 20.78 30.17 21.22C43.71 24.27 61.55 32.5 60.41 46.35C59.87 52.88 51.62 55.44 44.96 54.92Z" fill="#FFFFFF" fill-opacity="1.000000" fill-rule="evenodd"/>
</svg>
