<svg width="60.463379" height="55.238281" viewBox="0 0 60.4634 55.2383" fill="none" xmlns="http://www.w3.org/2000/svg" xmlns:xlink="http://www.w3.org/1999/xlink">
	<desc>
			Created with Pixso.
	</desc>
	<defs/>
	<ellipse id="Oval 5" rx="8.187030" ry="8.016079" transform="matrix(0.999567 -0.0294162 0.0294162 0.999567 12.061 15.23)" fill="#703FD6" fill-opacity="1.000000"/>
	<ellipse id="Oval 6" rx="10.419858" ry="10.202283" transform="matrix(0.999567 -0.0294162 0.0294162 0.999567 40.2227 10.7561)" fill="#703FD6" fill-opacity="1.000000"/>
	<path id="Oval 7" d="M2.33 38.84C6.16 29.98 21.81 17.85 28.59 20.57C34.35 20.4 25.79 39.24 25.08 40.36C24.37 41.47 17 50.8 11.25 50.97C5.49 51.14 -1.51 47.7 2.33 38.84Z" fill="#703FD6" fill-opacity="1.000000" fill-rule="evenodd"/>
	<path id="Oval 8" d="M42.99 52.51C36.62 52.02 21.71 28.93 25.6 21.93C25.74 20.21 26.99 19.87 28.85 20.29C41.8 23.21 58.85 31.08 57.76 44.32C57.25 50.56 49.36 53.01 42.99 52.51Z" fill="#703FD6" fill-opacity="1.000000" fill-rule="evenodd"/>
</svg>
